<?xml version="1.0" standalone="no"?>
<!DOCTYPE svg PUBLIC "-//W3C//DTD SVG 20010904//EN"
 "http://www.w3.org/TR/2001/REC-SVG-20010904/DTD/svg10.dtd">
<svg version="1.0" xmlns="http://www.w3.org/2000/svg"
 width="96.000000pt" height="96.000000pt" viewBox="0 0 96.000000 96.000000"
 preserveAspectRatio="xMidYMid meet">
<metadata>
Created by potrace 1.14, written by Peter Selinger 2001-2017
</metadata>
<g transform="translate(0.000000,96.000000) scale(0.100000,-0.100000)"
fill="#000000" stroke="none">
<path d="M66 844 c-8 -20 -8 -368 0 -388 5 -12 20 -16 60 -16 l54 0 0 -70 c0
-48 4 -70 12 -70 7 0 38 26 70 57 l58 57 0 -101 c0 -56 3 -108 6 -117 5 -14
28 -16 148 -16 l142 0 69 -70 c38 -38 75 -70 82 -70 9 0 13 20 13 70 l0 70 44
0 c80 0 76 -10 76 200 0 104 -3 195 -6 204 -5 13 -26 16 -130 16 l-124 0 0
114 c0 63 -3 121 -6 130 -5 14 -40 16 -284 16 -244 0 -279 -2 -284 -16z"/>
</g>
</svg>
